[img]http://imgr.us/images/qeyvvmsqk5581rdlc3w.png[/img]
Legend.of.the .Boneknapper.Dragon.2010.DVDRip-BONE

runtime - 16min 34sec
video - 1.03mbps
audio - 5.1 224kbs
res - 720x400


Video
ID                               : 1
Format                           : AVC
Format/Info                      : Advanced Video Codec
Format profile                   : Main@L3.0
Format settings, CABAC           : Yes
Format settings, ReFrames        : 2 frames
Format settings, GOP             : M=1, N=32
Codec ID                         : avc1
Codec ID/Info                    : Advanced Video Coding
Duration                         : 16mn 34s
Bit rate mode                    : Variable
Bit rate                         : 1 018 Kbps
Maximum bit rate                 : 3 475 Kbps
Width                            : 720 pixels
Height                           : 400 pixels
Display aspect ratio             : 16:9
Frame rate mode                  : Constant
Frame rate                       : 23.976 fps
Color space                      : YUV
Chroma subsampling               : 4:2:0
Bit depth                        : 8 bits
Scan type                        : Progressive
Bits/(Pixel*Frame)               : 0.147
Stream size                      : 121 MiB (82%)
Language                         : English



Audio
ID                               : 2
Format                           : AAC
Format/Info                      : Advanced Audio Codec
Format version                   : Version 4
Format profile                   : LC
Format settings, SBR             : No
Codec ID                         : 40
Duration                         : 16mn 34s
Bit rate mode                    : Variable
Bit rate                         : 222 Kbps
Maximum bit rate                 : 303 Kbps
Channel(s)                       : 6 channels
Channel positions                : Front: L C R, Side: L R, LFE
Sampling rate                    : 48.0 KHz
Stream size                      : 26.3 MiB (18%)
Title                            : Dolby Digital 5.1-ch 48KHz
Language                         : English

 
http://www.imdb.com/title/tt1744776/


[img]http://imgr.us/images/fhn7syiecb0he2l4de07.png[/img]
[img]http://imgr.us/images/ia9w3odspjl86g6cr38a.png[/img]
[img]http://imgr.us/images/eu29krhrvf1wp6yt787.png[/img]
[img]http://imgr.us/images/pvzpptwqknnpuqwh2idi.png[/img]